<svg width="56" height="56" viewBox="0 0 56 56" fill="none" xmlns="http://www.w3.org/2000/svg">
<circle cx="28" cy="28" r="27" stroke="#FC5543" stroke-width="2"/>
<path d="M39 20V26H33" stroke="#FC5543" stroke-width="2" stroke-linecap="round" stroke-linejoin="round"/>
<path d="M17 36V30H23" stroke="#FC5543" stroke-width="2" stroke-linecap="round" stroke-linejoin="round"/>
<path d="M19.51 25.0001C20.0172 23.5669 20.8791 22.2855 22.0155 21.2755C23.1518 20.2655 24.5255 19.5598 26.0083 19.2243C27.4911 18.8888 29.0348 18.9344 30.4952 19.3568C31.9556 19.7793 33.2853 20.5648 34.36 21.6401L39 26.0001M17 30.0001L21.64 34.3601C22.7147 35.4354 24.0444 36.2209 25.5048 36.6433C26.9652 37.0657 28.5089 37.1113 29.9917 36.7758C31.4745 36.4403 32.8482 35.7346 33.9845 34.7247C35.1209 33.7147 35.9828 32.4333 36.49 31.0001" stroke="#FC5543" stroke-width="2" stroke-linecap="round" stroke-linejoin="round"/>
</svg>
