<svg width="52" height="57" viewBox="0 0 52 57" fill="none" xmlns="http://www.w3.org/2000/svg">
<path d="M26.7272 23.0027C26.7272 23.0027 28.8323 8.96028 15.4932 5.09839C15.495 5.09839 13.3882 18.7891 26.7272 23.0027Z" fill="#008218"/>
<path d="M26.1281 23.0027C26.1281 23.0027 24.0222 8.96028 37.3621 5.09839C37.3603 5.09839 39.468 18.7891 26.1281 23.0027Z" fill="#008218"/>
<path d="M26.571 21.1305C26.571 21.1305 17.5341 10.1797 26.9791 0C26.9791 0 35.8362 10.6504 26.571 21.1305Z" fill="#008218"/>
<path d="M51.8647 33.5412C51.8647 46.4972 40.3494 57 26.1454 57C11.9397 57 0.427002 46.4972 0.427002 33.5412C0.427002 23.1887 6.63972 14.9039 17.132 12.9847C22.188 12.0607 26.1454 16.0172 26.1454 16.0172C26.1454 16.0172 29.7902 12.237 34.623 12.9083C44.7984 14.3212 51.8647 22.2039 51.8647 33.5412Z" fill="#FF4A44"/>
</svg>
