<svg width="215" height="128" viewBox="0 0 215 128" fill="none" xmlns="http://www.w3.org/2000/svg">
    <path d="M20.294 10L20.283 4.39L17.5 9.065H16.994L14.211 4.423V10H13.155V2.3H14.057L17.269 7.712L20.437 2.3H21.339L21.35 10H20.294ZM24.2569 4.17H25.3129V10H24.2569V4.17ZM24.7849 3.048C24.5795 3.048 24.4072 2.982 24.2679 2.85C24.1359 2.718 24.0699 2.55667 24.0699 2.366C24.0699 2.17533 24.1359 2.014 24.2679 1.882C24.4072 1.74267 24.5795 1.673 24.7849 1.673C24.9902 1.673 25.1589 1.739 25.2909 1.871C25.4302 1.99567 25.4999 2.15333 25.4999 2.344C25.4999 2.542 25.4302 2.71067 25.2909 2.85C25.1589 2.982 24.9902 3.048 24.7849 3.048ZM31.1921 4.115C31.9328 4.115 32.5195 4.33133 32.9521 4.764C33.3921 5.18933 33.6121 5.81633 33.6121 6.645V10H32.5561V6.766C32.5561 6.20133 32.4205 5.776 32.1491 5.49C31.8778 5.204 31.4891 5.061 30.9831 5.061C30.4111 5.061 29.9601 5.22967 29.6301 5.567C29.3001 5.897 29.1351 6.37367 29.1351 6.997V10H28.0791V4.17H29.0911V5.05C29.3038 4.74933 29.5898 4.51833 29.9491 4.357C30.3158 4.19567 30.7301 4.115 31.1921 4.115ZM41.7504 4.17V10H40.7494V9.12C40.5368 9.42067 40.2544 9.65533 39.9024 9.824C39.5578 9.98533 39.1801 10.066 38.7694 10.066C37.9921 10.066 37.3798 9.85333 36.9324 9.428C36.4851 8.99533 36.2614 8.361 36.2614 7.525V4.17H37.3174V7.404C37.3174 7.96867 37.4531 8.39767 37.7244 8.691C37.9958 8.977 38.3844 9.12 38.8904 9.12C39.4478 9.12 39.8878 8.95133 40.2104 8.614C40.5331 8.27667 40.6944 7.8 40.6944 7.184V4.17H41.7504ZM47.7888 9.659C47.6348 9.791 47.4441 9.89367 47.2168 9.967C46.9894 10.033 46.7548 10.066 46.5128 10.066C45.9261 10.066 45.4714 9.90833 45.1488 9.593C44.8261 9.27767 44.6648 8.82667 44.6648 8.24V5.039H43.6748V4.17H44.6648V2.894H45.7208V4.17H47.3928V5.039H45.7208V8.196C45.7208 8.51133 45.7978 8.75333 45.9518 8.922C46.1131 9.09067 46.3404 9.175 46.6338 9.175C46.9564 9.175 47.2314 9.08333 47.4588 8.9L47.7888 9.659ZM54.8911 7.118C54.8911 7.19867 54.8838 7.305 54.8691 7.437H50.1391C50.2051 7.95033 50.4288 8.36467 50.8101 8.68C51.1988 8.988 51.6791 9.142 52.2511 9.142C52.9478 9.142 53.5088 8.90733 53.9341 8.438L54.5171 9.12C54.2531 9.428 53.9231 9.66267 53.5271 9.824C53.1384 9.98533 52.7021 10.066 52.2181 10.066C51.6021 10.066 51.0558 9.94133 50.5791 9.692C50.1024 9.43533 49.7321 9.07967 49.4681 8.625C49.2114 8.17033 49.0831 7.657 49.0831 7.085C49.0831 6.52033 49.2078 6.01067 49.4571 5.556C49.7138 5.10133 50.0621 4.74933 50.5021 4.5C50.9494 4.24333 51.4518 4.115 52.0091 4.115C52.5664 4.115 53.0614 4.24333 53.4941 4.5C53.9341 4.74933 54.2751 5.10133 54.5171 5.556C54.7664 6.01067 54.8911 6.53133 54.8911 7.118ZM52.0091 5.006C51.5031 5.006 51.0778 5.16 50.7331 5.468C50.3958 5.776 50.1978 6.17933 50.1391 6.678H53.8791C53.8204 6.18667 53.6188 5.787 53.2741 5.479C52.9368 5.16367 52.5151 5.006 52.0091 5.006ZM58.7794 10.066C58.3028 10.066 57.8444 10.0037 57.4044 9.879C56.9644 9.747 56.6198 9.582 56.3704 9.384L56.8104 8.548C57.0671 8.73133 57.3788 8.878 57.7454 8.988C58.1121 9.098 58.4824 9.153 58.8564 9.153C59.7804 9.153 60.2424 8.889 60.2424 8.361C60.2424 8.185 60.1801 8.04567 60.0554 7.943C59.9308 7.84033 59.7731 7.767 59.5824 7.723C59.3991 7.67167 59.1351 7.61667 58.7904 7.558C58.3211 7.48467 57.9361 7.40033 57.6354 7.305C57.3421 7.20967 57.0891 7.04833 56.8764 6.821C56.6638 6.59367 56.5574 6.27467 56.5574 5.864C56.5574 5.336 56.7774 4.91433 57.2174 4.599C57.6574 4.27633 58.2478 4.115 58.9884 4.115C59.3771 4.115 59.7658 4.16267 60.1544 4.258C60.5431 4.35333 60.8621 4.48167 61.1114 4.643L60.6604 5.479C60.1838 5.171 59.6228 5.017 58.9774 5.017C58.5301 5.017 58.1891 5.09033 57.9544 5.237C57.7198 5.38367 57.6024 5.578 57.6024 5.82C57.6024 6.01067 57.6684 6.161 57.8004 6.271C57.9324 6.381 58.0938 6.46167 58.2844 6.513C58.4824 6.56433 58.7574 6.623 59.1094 6.689C59.5788 6.76967 59.9564 6.85767 60.2424 6.953C60.5358 7.041 60.7851 7.195 60.9904 7.415C61.1958 7.635 61.2984 7.943 61.2984 8.339C61.2984 8.867 61.0711 9.28867 60.6164 9.604C60.1691 9.912 59.5568 10.066 58.7794 10.066Z"
          fill="#FC5543"/>
    <rect x="9" y="22" width="57" height="31" rx="10" fill="#EFF0F7"/>
    <path d="M36.56 41.782V43H29.518V42.048L33.508 38.198C33.9933 37.7313 34.32 37.33 34.488 36.994C34.656 36.6487 34.74 36.3033 34.74 35.958C34.74 35.4447 34.558 35.048 34.194 34.768C33.8393 34.4787 33.326 34.334 32.654 34.334C31.5713 34.334 30.736 34.6887 30.148 35.398L29.196 34.572C29.5787 34.1053 30.078 33.7413 30.694 33.48C31.3193 33.2187 32.0147 33.088 32.78 33.088C33.8067 33.088 34.6233 33.3353 35.23 33.83C35.8367 34.3153 36.14 34.978 36.14 35.818C36.14 36.3407 36.028 36.8353 35.804 37.302C35.58 37.7687 35.1553 38.3007 34.53 38.898L31.534 41.782H36.56ZM41.2611 37.106C42.6611 37.106 43.6877 37.372 44.3411 37.904C45.0037 38.4267 45.3351 39.1453 45.3351 40.06C45.3351 40.6387 45.1951 41.1613 44.9151 41.628C44.6444 42.0853 44.2291 42.4493 43.6691 42.72C43.1184 42.9813 42.4371 43.112 41.6251 43.112C40.9344 43.112 40.2671 43.0093 39.6231 42.804C38.9791 42.5893 38.4471 42.2953 38.0271 41.922L38.6711 40.816C39.0071 41.1333 39.4364 41.39 39.9591 41.586C40.4817 41.7727 41.0324 41.866 41.6111 41.866C42.3484 41.866 42.9177 41.712 43.3191 41.404C43.7297 41.0867 43.9351 40.6573 43.9351 40.116C43.9351 39.528 43.7111 39.0847 43.2631 38.786C42.8151 38.478 42.0497 38.324 40.9671 38.324H38.7411L39.2591 33.2H44.7891V34.418H40.4351L40.1691 37.106H41.2611Z"
          fill="#2D2D2D"/>
    <path d="M3.399 85.088C2.81967 85.088 2.25867 85 1.716 84.824C1.18067 84.6407 0.759 84.406 0.451 84.12L0.858 83.262C1.15133 83.526 1.52533 83.7423 1.98 83.911C2.442 84.0723 2.915 84.153 3.399 84.153C4.037 84.153 4.51367 84.0467 4.829 83.834C5.14433 83.614 5.302 83.3243 5.302 82.965C5.302 82.701 5.214 82.4883 5.038 82.327C4.86933 82.1583 4.65667 82.03 4.4 81.942C4.15067 81.854 3.795 81.755 3.333 81.645C2.75367 81.5057 2.28433 81.3663 1.925 81.227C1.573 81.0877 1.26867 80.875 1.012 80.589C0.762667 80.2957 0.638 79.9033 0.638 79.412C0.638 79.0013 0.744333 78.631 0.957 78.301C1.177 77.971 1.507 77.707 1.947 77.509C2.387 77.311 2.93333 77.212 3.586 77.212C4.04067 77.212 4.488 77.2707 4.928 77.388C5.368 77.5053 5.74567 77.674 6.061 77.894L5.698 78.774C5.37533 78.5687 5.03067 78.4147 4.664 78.312C4.29733 78.202 3.938 78.147 3.586 78.147C2.96267 78.147 2.49333 78.2607 2.178 78.488C1.87 78.7153 1.716 79.0087 1.716 79.368C1.716 79.632 1.804 79.8483 1.98 80.017C2.156 80.1783 2.37233 80.3067 2.629 80.402C2.893 80.49 3.24867 80.5853 3.696 80.688C4.27533 80.8273 4.741 80.9667 5.093 81.106C5.445 81.2453 5.74567 81.458 5.995 81.744C6.25167 82.03 6.38 82.415 6.38 82.899C6.38 83.3023 6.27 83.6727 6.05 84.01C5.83 84.34 5.49633 84.604 5.049 84.802C4.60167 84.9927 4.05167 85.088 3.399 85.088ZM11.696 79.115C12.4367 79.115 13.0234 79.3313 13.456 79.764C13.896 80.1893 14.116 80.8163 14.116 81.645V85H13.06V81.766C13.06 81.2013 12.9244 80.776 12.653 80.49C12.3817 80.204 11.993 80.061 11.487 80.061C10.915 80.061 10.464 80.2297 10.134 80.567C9.80403 80.897 9.63903 81.3737 9.63903 81.997V85H8.58303V76.838H9.63903V79.995C9.85903 79.7163 10.145 79.5 10.497 79.346C10.8564 79.192 11.256 79.115 11.696 79.115ZM19.3496 85.066C18.7702 85.066 18.2496 84.9377 17.7876 84.681C17.3256 84.4243 16.9626 84.0723 16.6986 83.625C16.4419 83.1703 16.3136 82.657 16.3136 82.085C16.3136 81.513 16.4419 81.0033 16.6986 80.556C16.9626 80.1013 17.3256 79.7493 17.7876 79.5C18.2496 79.2433 18.7702 79.115 19.3496 79.115C19.9289 79.115 20.4459 79.2433 20.9006 79.5C21.3626 79.7493 21.7219 80.1013 21.9786 80.556C22.2426 81.0033 22.3746 81.513 22.3746 82.085C22.3746 82.657 22.2426 83.1703 21.9786 83.625C21.7219 84.0723 21.3626 84.4243 20.9006 84.681C20.4459 84.9377 19.9289 85.066 19.3496 85.066ZM19.3496 84.142C19.7236 84.142 20.0572 84.0577 20.3506 83.889C20.6512 83.713 20.8859 83.471 21.0546 83.163C21.2232 82.8477 21.3076 82.4883 21.3076 82.085C21.3076 81.6817 21.2232 81.326 21.0546 81.018C20.8859 80.7027 20.6512 80.4607 20.3506 80.292C20.0572 80.1233 19.7236 80.039 19.3496 80.039C18.9756 80.039 18.6382 80.1233 18.3376 80.292C18.0442 80.4607 17.8096 80.7027 17.6336 81.018C17.4649 81.326 17.3806 81.6817 17.3806 82.085C17.3806 82.4883 17.4649 82.8477 17.6336 83.163C17.8096 83.471 18.0442 83.713 18.3376 83.889C18.6382 84.0577 18.9756 84.142 19.3496 84.142ZM25.597 80.149C25.7803 79.8117 26.0517 79.555 26.411 79.379C26.7703 79.203 27.2067 79.115 27.72 79.115V80.138C27.6613 80.1307 27.5807 80.127 27.478 80.127C26.906 80.127 26.455 80.2993 26.125 80.644C25.8023 80.9813 25.641 81.4653 25.641 82.096V85H24.585V79.17H25.597V80.149ZM33.2858 84.659C33.1318 84.791 32.9412 84.8937 32.7138 84.967C32.4865 85.033 32.2518 85.066 32.0098 85.066C31.4232 85.066 30.9685 84.9083 30.6458 84.593C30.3232 84.2777 30.1618 83.8267 30.1618 83.24V80.039H29.1718V79.17H30.1618V77.894H31.2178V79.17H32.8898V80.039H31.2178V83.196C31.2178 83.5113 31.2948 83.7533 31.4488 83.922C31.6102 84.0907 31.8375 84.175 32.1308 84.175C32.4535 84.175 32.7285 84.0833 32.9558 83.9L33.2858 84.659ZM44.3516 81.007C44.799 81.1317 45.151 81.359 45.4076 81.689C45.6643 82.0117 45.7926 82.4223 45.7926 82.921C45.7926 83.5883 45.5396 84.1017 45.0336 84.461C44.535 84.8203 43.8053 85 42.8446 85H39.1706V77.3H42.6246C43.5046 77.3 44.183 77.476 44.6596 77.828C45.1436 78.18 45.3856 78.6677 45.3856 79.291C45.3856 79.6943 45.2903 80.0427 45.0996 80.336C44.9163 80.6293 44.667 80.853 44.3516 81.007ZM40.2706 78.191V80.655H42.5256C43.0903 80.655 43.523 80.5523 43.8236 80.347C44.1316 80.1343 44.2856 79.8263 44.2856 79.423C44.2856 79.0197 44.1316 78.7153 43.8236 78.51C43.523 78.2973 43.0903 78.191 42.5256 78.191H40.2706ZM42.8006 84.109C43.424 84.109 43.8933 84.0063 44.2086 83.801C44.524 83.5957 44.6816 83.273 44.6816 82.833C44.6816 81.975 44.0546 81.546 42.8006 81.546H40.2706V84.109H42.8006ZM49.1038 80.149C49.2872 79.8117 49.5585 79.555 49.9178 79.379C50.2772 79.203 50.7135 79.115 51.2268 79.115V80.138C51.1682 80.1307 51.0875 80.127 50.9848 80.127C50.4128 80.127 49.9618 80.2993 49.6318 80.644C49.3092 80.9813 49.1478 81.4653 49.1478 82.096V85H48.0918V79.17H49.1038V80.149ZM58.4936 82.118C58.4936 82.1987 58.4863 82.305 58.4716 82.437H53.7416C53.8076 82.9503 54.0313 83.3647 54.4126 83.68C54.8013 83.988 55.2816 84.142 55.8536 84.142C56.5503 84.142 57.1113 83.9073 57.5366 83.438L58.1196 84.12C57.8556 84.428 57.5256 84.6627 57.1296 84.824C56.741 84.9853 56.3046 85.066 55.8206 85.066C55.2046 85.066 54.6583 84.9413 54.1816 84.692C53.705 84.4353 53.3346 84.0797 53.0706 83.625C52.814 83.1703 52.6856 82.657 52.6856 82.085C52.6856 81.5203 52.8103 81.0107 53.0596 80.556C53.3163 80.1013 53.6646 79.7493 54.1046 79.5C54.552 79.2433 55.0543 79.115 55.6116 79.115C56.169 79.115 56.664 79.2433 57.0966 79.5C57.5366 79.7493 57.8776 80.1013 58.1196 80.556C58.369 81.0107 58.4936 81.5313 58.4936 82.118ZM55.6116 80.006C55.1056 80.006 54.6803 80.16 54.3356 80.468C53.9983 80.776 53.8003 81.1793 53.7416 81.678H57.4816C57.423 81.1867 57.2213 80.787 56.8766 80.479C56.5393 80.1637 56.1176 80.006 55.6116 80.006ZM62.6719 79.115C63.4785 79.115 64.0945 79.313 64.5199 79.709C64.9525 80.105 65.1689 80.6953 65.1689 81.48V85H64.1679V84.23C63.9919 84.5013 63.7389 84.7103 63.4089 84.857C63.0862 84.9963 62.7012 85.066 62.2539 85.066C61.6012 85.066 61.0769 84.9083 60.6809 84.593C60.2922 84.2777 60.0979 83.8633 60.0979 83.35C60.0979 82.8367 60.2849 82.426 60.6589 82.118C61.0329 81.8027 61.6269 81.645 62.4409 81.645H64.1129V81.436C64.1129 80.9813 63.9809 80.633 63.7169 80.391C63.4529 80.149 63.0642 80.028 62.5509 80.028C62.2062 80.028 61.8689 80.0867 61.5389 80.204C61.2089 80.314 60.9302 80.4643 60.7029 80.655L60.2629 79.863C60.5635 79.621 60.9229 79.4377 61.3409 79.313C61.7589 79.181 62.2025 79.115 62.6719 79.115ZM62.4299 84.252C62.8332 84.252 63.1815 84.164 63.4749 83.988C63.7682 83.8047 63.9809 83.548 64.1129 83.218V82.404H62.4849C61.5902 82.404 61.1429 82.7047 61.1429 83.306C61.1429 83.5993 61.2565 83.8303 61.4839 83.999C61.7112 84.1677 62.0265 84.252 62.4299 84.252ZM70.1391 82.283L68.9291 83.405V85H67.8731V76.838H68.9291V82.074L72.1081 79.17H73.3841L70.9311 81.579L73.6261 85H72.3281L70.1391 82.283Z"
          fill="#FC5543"/>
    <rect x="13" y="97" width="49" height="31" rx="10" fill="#EFF0F7"/>
    <path d="M36.472 112.106C37.872 112.106 38.8987 112.372 39.552 112.904C40.2147 113.427 40.546 114.145 40.546 115.06C40.546 115.639 40.406 116.161 40.126 116.628C39.8553 117.085 39.44 117.449 38.88 117.72C38.3293 117.981 37.648 118.112 36.836 118.112C36.1453 118.112 35.478 118.009 34.834 117.804C34.19 117.589 33.658 117.295 33.238 116.922L33.882 115.816C34.218 116.133 34.6473 116.39 35.17 116.586C35.6927 116.773 36.2433 116.866 36.822 116.866C37.5593 116.866 38.1287 116.712 38.53 116.404C38.9407 116.087 39.146 115.657 39.146 115.116C39.146 114.528 38.922 114.085 38.474 113.786C38.026 113.478 37.2607 113.324 36.178 113.324H33.952L34.47 108.2H40V109.418H35.646L35.38 112.106H36.472Z"
          fill="#2D2D2D"/>
    <path d="M157.399 10.088C156.82 10.088 156.259 10 155.716 9.824C155.181 9.64067 154.759 9.406 154.451 9.12L154.858 8.262C155.151 8.526 155.525 8.74233 155.98 8.911C156.442 9.07233 156.915 9.153 157.399 9.153C158.037 9.153 158.514 9.04667 158.829 8.834C159.144 8.614 159.302 8.32433 159.302 7.965C159.302 7.701 159.214 7.48833 159.038 7.327C158.869 7.15833 158.657 7.03 158.4 6.942C158.151 6.854 157.795 6.755 157.333 6.645C156.754 6.50567 156.284 6.36633 155.925 6.227C155.573 6.08767 155.269 5.875 155.012 5.589C154.763 5.29567 154.638 4.90333 154.638 4.412C154.638 4.00133 154.744 3.631 154.957 3.301C155.177 2.971 155.507 2.707 155.947 2.509C156.387 2.311 156.933 2.212 157.586 2.212C158.041 2.212 158.488 2.27067 158.928 2.388C159.368 2.50533 159.746 2.674 160.061 2.894L159.698 3.774C159.375 3.56867 159.031 3.41467 158.664 3.312C158.297 3.202 157.938 3.147 157.586 3.147C156.963 3.147 156.493 3.26067 156.178 3.488C155.87 3.71533 155.716 4.00867 155.716 4.368C155.716 4.632 155.804 4.84833 155.98 5.017C156.156 5.17833 156.372 5.30667 156.629 5.402C156.893 5.49 157.249 5.58533 157.696 5.688C158.275 5.82733 158.741 5.96667 159.093 6.106C159.445 6.24533 159.746 6.458 159.995 6.744C160.252 7.03 160.38 7.415 160.38 7.899C160.38 8.30233 160.27 8.67267 160.05 9.01C159.83 9.34 159.496 9.604 159.049 9.802C158.602 9.99267 158.052 10.088 157.399 10.088ZM167.852 7.118C167.852 7.19867 167.845 7.305 167.83 7.437H163.1C163.166 7.95033 163.39 8.36467 163.771 8.68C164.16 8.988 164.64 9.142 165.212 9.142C165.909 9.142 166.47 8.90733 166.895 8.438L167.478 9.12C167.214 9.428 166.884 9.66267 166.488 9.824C166.099 9.98533 165.663 10.066 165.179 10.066C164.563 10.066 164.017 9.94133 163.54 9.692C163.063 9.43533 162.693 9.07967 162.429 8.625C162.172 8.17033 162.044 7.657 162.044 7.085C162.044 6.52033 162.169 6.01067 162.418 5.556C162.675 5.10133 163.023 4.74933 163.463 4.5C163.91 4.24333 164.413 4.115 164.97 4.115C165.527 4.115 166.022 4.24333 166.455 4.5C166.895 4.74933 167.236 5.10133 167.478 5.556C167.727 6.01067 167.852 6.53133 167.852 7.118ZM164.97 5.006C164.464 5.006 164.039 5.16 163.694 5.468C163.357 5.776 163.159 6.17933 163.1 6.678H166.84C166.781 6.18667 166.58 5.787 166.235 5.479C165.898 5.16367 165.476 5.006 164.97 5.006ZM172.609 10.066C172.015 10.066 171.484 9.93767 171.014 9.681C170.552 9.42433 170.189 9.07233 169.925 8.625C169.661 8.17033 169.529 7.657 169.529 7.085C169.529 6.513 169.661 6.00333 169.925 5.556C170.189 5.10133 170.552 4.74933 171.014 4.5C171.484 4.24333 172.015 4.115 172.609 4.115C173.137 4.115 173.607 4.22133 174.017 4.434C174.435 4.64667 174.758 4.95467 174.985 5.358L174.182 5.875C173.999 5.59633 173.772 5.38733 173.5 5.248C173.229 5.10867 172.928 5.039 172.598 5.039C172.217 5.039 171.872 5.12333 171.564 5.292C171.264 5.46067 171.025 5.70267 170.849 6.018C170.681 6.326 170.596 6.68167 170.596 7.085C170.596 7.49567 170.681 7.85867 170.849 8.174C171.025 8.482 171.264 8.72033 171.564 8.889C171.872 9.05767 172.217 9.142 172.598 9.142C172.928 9.142 173.229 9.07233 173.5 8.933C173.772 8.79367 173.999 8.58467 174.182 8.306L174.985 8.812C174.758 9.21533 174.435 9.527 174.017 9.747C173.607 9.95967 173.137 10.066 172.609 10.066ZM179.514 10.066C178.934 10.066 178.414 9.93767 177.952 9.681C177.49 9.42433 177.127 9.07233 176.863 8.625C176.606 8.17033 176.478 7.657 176.478 7.085C176.478 6.513 176.606 6.00333 176.863 5.556C177.127 5.10133 177.49 4.74933 177.952 4.5C178.414 4.24333 178.934 4.115 179.514 4.115C180.093 4.115 180.61 4.24333 181.065 4.5C181.527 4.74933 181.886 5.10133 182.143 5.556C182.407 6.00333 182.539 6.513 182.539 7.085C182.539 7.657 182.407 8.17033 182.143 8.625C181.886 9.07233 181.527 9.42433 181.065 9.681C180.61 9.93767 180.093 10.066 179.514 10.066ZM179.514 9.142C179.888 9.142 180.221 9.05767 180.515 8.889C180.815 8.713 181.05 8.471 181.219 8.163C181.387 7.84767 181.472 7.48833 181.472 7.085C181.472 6.68167 181.387 6.326 181.219 6.018C181.05 5.70267 180.815 5.46067 180.515 5.292C180.221 5.12333 179.888 5.039 179.514 5.039C179.14 5.039 178.802 5.12333 178.502 5.292C178.208 5.46067 177.974 5.70267 177.798 6.018C177.629 6.326 177.545 6.68167 177.545 7.085C177.545 7.48833 177.629 7.84767 177.798 8.163C177.974 8.471 178.208 8.713 178.502 8.889C178.802 9.05767 179.14 9.142 179.514 9.142ZM187.862 4.115C188.603 4.115 189.189 4.33133 189.622 4.764C190.062 5.18933 190.282 5.81633 190.282 6.645V10H189.226V6.766C189.226 6.20133 189.09 5.776 188.819 5.49C188.548 5.204 188.159 5.061 187.653 5.061C187.081 5.061 186.63 5.22967 186.3 5.567C185.97 5.897 185.805 6.37367 185.805 6.997V10H184.749V4.17H185.761V5.05C185.974 4.74933 186.26 4.51833 186.619 4.357C186.986 4.19567 187.4 4.115 187.862 4.115ZM198.519 1.838V10H197.507V9.076C197.272 9.39867 196.975 9.64433 196.616 9.813C196.256 9.98167 195.86 10.066 195.428 10.066C194.863 10.066 194.357 9.94133 193.91 9.692C193.462 9.44267 193.11 9.09433 192.854 8.647C192.604 8.19233 192.48 7.67167 192.48 7.085C192.48 6.49833 192.604 5.98133 192.854 5.534C193.11 5.08667 193.462 4.73833 193.91 4.489C194.357 4.23967 194.863 4.115 195.428 4.115C195.846 4.115 196.231 4.19567 196.583 4.357C196.935 4.511 197.228 4.742 197.463 5.05V1.838H198.519ZM195.516 9.142C195.882 9.142 196.216 9.05767 196.517 8.889C196.817 8.713 197.052 8.471 197.221 8.163C197.389 7.84767 197.474 7.48833 197.474 7.085C197.474 6.68167 197.389 6.326 197.221 6.018C197.052 5.70267 196.817 5.46067 196.517 5.292C196.216 5.12333 195.882 5.039 195.516 5.039C195.142 5.039 194.804 5.12333 194.504 5.292C194.21 5.46067 193.976 5.70267 193.8 6.018C193.631 6.326 193.547 6.68167 193.547 7.085C193.547 7.48833 193.631 7.84767 193.8 8.163C193.976 8.471 194.21 8.713 194.504 8.889C194.804 9.05767 195.142 9.142 195.516 9.142ZM202.939 10.066C202.462 10.066 202.004 10.0037 201.564 9.879C201.124 9.747 200.779 9.582 200.53 9.384L200.97 8.548C201.226 8.73133 201.538 8.878 201.905 8.988C202.271 9.098 202.642 9.153 203.016 9.153C203.94 9.153 204.402 8.889 204.402 8.361C204.402 8.185 204.339 8.04567 204.215 7.943C204.09 7.84033 203.932 7.767 203.742 7.723C203.558 7.67167 203.294 7.61667 202.95 7.558C202.48 7.48467 202.095 7.40033 201.795 7.305C201.501 7.20967 201.248 7.04833 201.036 6.821C200.823 6.59367 200.717 6.27467 200.717 5.864C200.717 5.336 200.937 4.91433 201.377 4.599C201.817 4.27633 202.407 4.115 203.148 4.115C203.536 4.115 203.925 4.16267 204.314 4.258C204.702 4.35333 205.021 4.48167 205.271 4.643L204.82 5.479C204.343 5.171 203.782 5.017 203.137 5.017C202.689 5.017 202.348 5.09033 202.114 5.237C201.879 5.38367 201.762 5.578 201.762 5.82C201.762 6.01067 201.828 6.161 201.96 6.271C202.092 6.381 202.253 6.46167 202.444 6.513C202.642 6.56433 202.917 6.623 203.269 6.689C203.738 6.76967 204.116 6.85767 204.402 6.953C204.695 7.041 204.944 7.195 205.15 7.415C205.355 7.635 205.458 7.943 205.458 8.339C205.458 8.867 205.23 9.28867 204.776 9.604C204.328 9.912 203.716 10.066 202.939 10.066Z"
          fill="#FC5543"/>
    <rect x="150" y="22" width="60" height="31" rx="10" fill="#EFF0F7"/>
    <path d="M174.676 43.112C173.901 43.112 173.211 42.916 172.604 42.524C172.007 42.1227 171.535 41.544 171.19 40.788C170.845 40.032 170.672 39.136 170.672 38.1C170.672 37.064 170.845 36.168 171.19 35.412C171.535 34.656 172.007 34.082 172.604 33.69C173.211 33.2887 173.901 33.088 174.676 33.088C175.441 33.088 176.123 33.2887 176.72 33.69C177.327 34.082 177.803 34.656 178.148 35.412C178.493 36.168 178.666 37.064 178.666 38.1C178.666 39.136 178.493 40.032 178.148 40.788C177.803 41.544 177.327 42.1227 176.72 42.524C176.123 42.916 175.441 43.112 174.676 43.112ZM174.676 41.866C175.46 41.866 176.085 41.544 176.552 40.9C177.028 40.256 177.266 39.3227 177.266 38.1C177.266 36.8773 177.028 35.944 176.552 35.3C176.085 34.656 175.46 34.334 174.676 34.334C173.883 34.334 173.248 34.656 172.772 35.3C172.305 35.944 172.072 36.8773 172.072 38.1C172.072 39.3227 172.305 40.256 172.772 40.9C173.248 41.544 173.883 41.866 174.676 41.866ZM184.764 43.112C183.989 43.112 183.299 42.916 182.692 42.524C182.095 42.1227 181.623 41.544 181.278 40.788C180.933 40.032 180.76 39.136 180.76 38.1C180.76 37.064 180.933 36.168 181.278 35.412C181.623 34.656 182.095 34.082 182.692 33.69C183.299 33.2887 183.989 33.088 184.764 33.088C185.529 33.088 186.211 33.2887 186.808 33.69C187.415 34.082 187.891 34.656 188.236 35.412C188.581 36.168 188.754 37.064 188.754 38.1C188.754 39.136 188.581 40.032 188.236 40.788C187.891 41.544 187.415 42.1227 186.808 42.524C186.211 42.916 185.529 43.112 184.764 43.112ZM184.764 41.866C185.548 41.866 186.173 41.544 186.64 40.9C187.116 40.256 187.354 39.3227 187.354 38.1C187.354 36.8773 187.116 35.944 186.64 35.3C186.173 34.656 185.548 34.334 184.764 34.334C183.971 34.334 183.336 34.656 182.86 35.3C182.393 35.944 182.16 36.8773 182.16 38.1C182.16 39.3227 182.393 40.256 182.86 40.9C183.336 41.544 183.971 41.866 184.764 41.866Z"
          fill="#2D2D2D"/>
    <path d="M145.155 77.3H146.255V84.043H150.424V85H145.155V77.3ZM154.704 85.066C154.125 85.066 153.604 84.9377 153.142 84.681C152.68 84.4243 152.317 84.0723 152.053 83.625C151.796 83.1703 151.668 82.657 151.668 82.085C151.668 81.513 151.796 81.0033 152.053 80.556C152.317 80.1013 152.68 79.7493 153.142 79.5C153.604 79.2433 154.125 79.115 154.704 79.115C155.283 79.115 155.8 79.2433 156.255 79.5C156.717 79.7493 157.076 80.1013 157.333 80.556C157.597 81.0033 157.729 81.513 157.729 82.085C157.729 82.657 157.597 83.1703 157.333 83.625C157.076 84.0723 156.717 84.4243 156.255 84.681C155.8 84.9377 155.283 85.066 154.704 85.066ZM154.704 84.142C155.078 84.142 155.412 84.0577 155.705 83.889C156.006 83.713 156.24 83.471 156.409 83.163C156.578 82.8477 156.662 82.4883 156.662 82.085C156.662 81.6817 156.578 81.326 156.409 81.018C156.24 80.7027 156.006 80.4607 155.705 80.292C155.412 80.1233 155.078 80.039 154.704 80.039C154.33 80.039 153.993 80.1233 153.692 80.292C153.399 80.4607 153.164 80.7027 152.988 81.018C152.819 81.326 152.735 81.6817 152.735 82.085C152.735 82.4883 152.819 82.8477 152.988 83.163C153.164 83.471 153.399 83.713 153.692 83.889C153.993 84.0577 154.33 84.142 154.704 84.142ZM163.052 79.115C163.793 79.115 164.38 79.3313 164.812 79.764C165.252 80.1893 165.472 80.8163 165.472 81.645V85H164.416V81.766C164.416 81.2013 164.281 80.776 164.009 80.49C163.738 80.204 163.349 80.061 162.843 80.061C162.271 80.061 161.82 80.2297 161.49 80.567C161.16 80.897 160.995 81.3737 160.995 81.997V85H159.939V79.17H160.951V80.05C161.164 79.7493 161.45 79.5183 161.809 79.357C162.176 79.1957 162.59 79.115 163.052 79.115ZM173.786 79.17V84.208C173.786 85.2273 173.533 85.979 173.027 86.463C172.521 86.9543 171.766 87.2 170.761 87.2C170.211 87.2 169.687 87.123 169.188 86.969C168.689 86.8223 168.286 86.6097 167.978 86.331L168.484 85.517C168.755 85.7517 169.089 85.935 169.485 86.067C169.888 86.2063 170.303 86.276 170.728 86.276C171.41 86.276 171.912 86.1147 172.235 85.792C172.565 85.4693 172.73 84.978 172.73 84.318V83.856C172.481 84.1567 172.173 84.384 171.806 84.538C171.447 84.6847 171.054 84.758 170.629 84.758C170.072 84.758 169.566 84.6407 169.111 84.406C168.664 84.164 168.312 83.8303 168.055 83.405C167.798 82.9723 167.67 82.481 167.67 81.931C167.67 81.381 167.798 80.8933 168.055 80.468C168.312 80.0353 168.664 79.7017 169.111 79.467C169.566 79.2323 170.072 79.115 170.629 79.115C171.069 79.115 171.476 79.1957 171.85 79.357C172.231 79.5183 172.543 79.7567 172.785 80.072V79.17H173.786ZM170.75 83.834C171.131 83.834 171.472 83.7533 171.773 83.592C172.081 83.4307 172.319 83.207 172.488 82.921C172.664 82.6277 172.752 82.2977 172.752 81.931C172.752 81.3663 172.565 80.9117 172.191 80.567C171.817 80.215 171.337 80.039 170.75 80.039C170.156 80.039 169.672 80.215 169.298 80.567C168.924 80.9117 168.737 81.3663 168.737 81.931C168.737 82.2977 168.821 82.6277 168.99 82.921C169.166 83.207 169.404 83.4307 169.705 83.592C170.013 83.7533 170.361 83.834 170.75 83.834ZM185.593 81.007C186.04 81.1317 186.392 81.359 186.649 81.689C186.906 82.0117 187.034 82.4223 187.034 82.921C187.034 83.5883 186.781 84.1017 186.275 84.461C185.776 84.8203 185.047 85 184.086 85H180.412V77.3H183.866C184.746 77.3 185.424 77.476 185.901 77.828C186.385 78.18 186.627 78.6677 186.627 79.291C186.627 79.6943 186.532 80.0427 186.341 80.336C186.158 80.6293 185.908 80.853 185.593 81.007ZM181.512 78.191V80.655H183.767C184.332 80.655 184.764 80.5523 185.065 80.347C185.373 80.1343 185.527 79.8263 185.527 79.423C185.527 79.0197 185.373 78.7153 185.065 78.51C184.764 78.2973 184.332 78.191 183.767 78.191H181.512ZM184.042 84.109C184.665 84.109 185.135 84.0063 185.45 83.801C185.765 83.5957 185.923 83.273 185.923 82.833C185.923 81.975 185.296 81.546 184.042 81.546H181.512V84.109H184.042ZM190.345 80.149C190.528 79.8117 190.8 79.555 191.159 79.379C191.518 79.203 191.955 79.115 192.468 79.115V80.138C192.409 80.1307 192.329 80.127 192.226 80.127C191.654 80.127 191.203 80.2993 190.873 80.644C190.55 80.9813 190.389 81.4653 190.389 82.096V85H189.333V79.17H190.345V80.149ZM199.735 82.118C199.735 82.1987 199.728 82.305 199.713 82.437H194.983C195.049 82.9503 195.273 83.3647 195.654 83.68C196.043 83.988 196.523 84.142 197.095 84.142C197.792 84.142 198.353 83.9073 198.778 83.438L199.361 84.12C199.097 84.428 198.767 84.6627 198.371 84.824C197.982 84.9853 197.546 85.066 197.062 85.066C196.446 85.066 195.9 84.9413 195.423 84.692C194.946 84.4353 194.576 84.0797 194.312 83.625C194.055 83.1703 193.927 82.657 193.927 82.085C193.927 81.5203 194.052 81.0107 194.301 80.556C194.558 80.1013 194.906 79.7493 195.346 79.5C195.793 79.2433 196.296 79.115 196.853 79.115C197.41 79.115 197.905 79.2433 198.338 79.5C198.778 79.7493 199.119 80.1013 199.361 80.556C199.61 81.0107 199.735 81.5313 199.735 82.118ZM196.853 80.006C196.347 80.006 195.922 80.16 195.577 80.468C195.24 80.776 195.042 81.1793 194.983 81.678H198.723C198.664 81.1867 198.463 80.787 198.118 80.479C197.781 80.1637 197.359 80.006 196.853 80.006ZM203.913 79.115C204.72 79.115 205.336 79.313 205.761 79.709C206.194 80.105 206.41 80.6953 206.41 81.48V85H205.409V84.23C205.233 84.5013 204.98 84.7103 204.65 84.857C204.327 84.9963 203.942 85.066 203.495 85.066C202.842 85.066 202.318 84.9083 201.922 84.593C201.533 84.2777 201.339 83.8633 201.339 83.35C201.339 82.8367 201.526 82.426 201.9 82.118C202.274 81.8027 202.868 81.645 203.682 81.645H205.354V81.436C205.354 80.9813 205.222 80.633 204.958 80.391C204.694 80.149 204.305 80.028 203.792 80.028C203.447 80.028 203.11 80.0867 202.78 80.204C202.45 80.314 202.171 80.4643 201.944 80.655L201.504 79.863C201.805 79.621 202.164 79.4377 202.582 79.313C203 79.181 203.444 79.115 203.913 79.115ZM203.671 84.252C204.074 84.252 204.423 84.164 204.716 83.988C205.009 83.8047 205.222 83.548 205.354 83.218V82.404H203.726C202.831 82.404 202.384 82.7047 202.384 83.306C202.384 83.5993 202.498 83.8303 202.725 83.999C202.952 84.1677 203.268 84.252 203.671 84.252ZM211.38 82.283L210.17 83.405V85H209.114V76.838H210.17V82.074L213.349 79.17H214.625L212.172 81.579L214.867 85H213.569L211.38 82.283Z"
          fill="#FC5543"/>
    <rect x="153" y="97" width="54" height="31" rx="10" fill="#EFF0F7"/>
    <path d="M176.71 108.2V118H175.324V109.418H173.112V108.2H176.71ZM182.404 112.106C183.804 112.106 184.83 112.372 185.484 112.904C186.146 113.427 186.478 114.145 186.478 115.06C186.478 115.639 186.338 116.161 186.058 116.628C185.787 117.085 185.372 117.449 184.812 117.72C184.261 117.981 183.58 118.112 182.768 118.112C182.077 118.112 181.41 118.009 180.766 117.804C180.122 117.589 179.59 117.295 179.17 116.922L179.814 115.816C180.15 116.133 180.579 116.39 181.102 116.586C181.624 116.773 182.175 116.866 182.754 116.866C183.491 116.866 184.06 116.712 184.462 116.404C184.872 116.087 185.078 115.657 185.078 115.116C185.078 114.528 184.854 114.085 184.406 113.786C183.958 113.478 183.192 113.324 182.11 113.324H179.884L180.402 108.2H185.932V109.418H181.578L181.312 112.106H182.404Z"
          fill="#2D2D2D"/>
</svg>
